<?xml version="1.0" encoding="utf-8" standalone="no"?>
<!DOCTYPE svg PUBLIC "-//W3C//DTD SVG 1.1//EN"
  "http://www.w3.org/Graphics/SVG/1.1/DTD/svg11.dtd">
<!-- Created with matplotlib (http://matplotlib.org/) -->
<svg height="432pt" version="1.1" viewBox="0 0 576 432" width="576pt" xmlns="http://www.w3.org/2000/svg" xmlns:xlink="http://www.w3.org/1999/xlink">
 <defs>
  <style type="text/css">
*{stroke-linecap:butt;stroke-linejoin:round;stroke-miterlimit:100000;}
  </style>
 </defs>
 <g id="figure_1">
  <g id="patch_1">
   <path d="M 0 432 
L 576 432 
L 576 0 
L 0 0 
z
" style="fill:#ffffff;"/>
  </g>
  <g id="axes_1">
   <g id="patch_2">
    <path d="M 72 388.8 
L 518.4 388.8 
L 518.4 43.2 
L 72 43.2 
z
" style="fill:#ffffff;"/>
   </g>
   <g id="PathCollection_1">
    <defs>
     <path d="M 0 0.707107 
C 0.187527 0.707107 0.367398 0.632602 0.5 0.5 
C 0.632602 0.367398 0.707107 0.187527 0.707107 0 
C 0.707107 -0.187527 0.632602 -0.367398 0.5 -0.5 
C 0.367398 -0.632602 0.187527 -0.707107 0 -0.707107 
C -0.187527 -0.707107 -0.367398 -0.632602 -0.5 -0.5 
C -0.632602 -0.367398 -0.707107 -0.187527 -0.707107 0 
C -0.707107 0.187527 -0.632602 0.367398 -0.5 0.5 
C -0.367398 0.632602 -0.187527 0.707107 0 0.707107 
z
" id="mc85ebcf0bc" style="stroke:#000000;"/>
    </defs>
    <g clip-path="url(#pb8e549006f)">
     <use style="fill:#0000ff;stroke:#000000;" x="311.616686055" xlink:href="#mc85ebcf0bc" y="99.8150156753"/>
     <use style="fill:#0000ff;stroke:#000000;" x="330.593013742" xlink:href="#mc85ebcf0bc" y="225.146620344"/>
     <use style="fill:#0000ff;stroke:#000000;" x="266.148208804" xlink:href="#mc85ebcf0bc" y="151.06083919"/>
     <use style="fill:#0000ff;stroke:#000000;" x="215.739474198" xlink:href="#mc85ebcf0bc" y="277.580410421"/>
     <use style="fill:#0000ff;stroke:#000000;" x="194.732304371" xlink:href="#mc85ebcf0bc" y="248.688319738"/>
     <use style="fill:#0000ff;stroke:#000000;" x="158.121897741" xlink:href="#mc85ebcf0bc" y="230.705184645"/>
    </g>
   </g>
   <g id="PathCollection_2">
    <defs>
     <path d="M 0 0.707107 
C 0.187527 0.707107 0.367398 0.632602 0.5 0.5 
C 0.632602 0.367398 0.707107 0.187527 0.707107 0 
C 0.707107 -0.187527 0.632602 -0.367398 0.5 -0.5 
C 0.367398 -0.632602 0.187527 -0.707107 0 -0.707107 
C -0.187527 -0.707107 -0.367398 -0.632602 -0.5 -0.5 
C -0.632602 -0.367398 -0.707107 -0.187527 -0.707107 0 
C -0.707107 0.187527 -0.632602 0.367398 -0.5 0.5 
C -0.367398 0.632602 -0.187527 0.707107 0 0.707107 
z
" id="mfcb82e0a8a" style="stroke:#000000;"/>
    </defs>
    <g clip-path="url(#pb8e549006f)">
     <use style="stroke:#000000;" x="311.616686055" xlink:href="#mfcb82e0a8a" y="99.8150156753"/>
    </g>
   </g>
   <g id="PathCollection_3">
    <g clip-path="url(#pb8e549006f)">
     <use style="stroke:#000000;" x="158.121897741" xlink:href="#mfcb82e0a8a" y="230.705184645"/>
    </g>
   </g>
   <g id="line2d_1">
    <path clip-path="url(#pb8e549006f)" d="M 157.56 230.964919 
L 157.89565 230.811851 
L 157.89565 230.811851 
L 157.89565 230.811851 
L 158.227798 230.654271 
L 158.227798 230.654271 
L 158.227798 230.654271 
L 158.556343 230.492227 
L 158.556343 230.492227 
L 158.556343 230.492227 
L 158.881186 230.325769 
L 158.881186 230.325769 
L 158.881186 230.325769 
L 159.202226 230.154947 
L 159.202226 230.154947 
L 159.202226 230.154947 
L 159.519367 229.979814 
L 159.519367 229.979814 
L 159.519367 229.979814 
L 159.832511 229.800422 
L 159.832511 229.800422 
L 159.832511 229.800422 
L 160.141564 229.616826 
L 160.141564 229.616826 
L 160.141564 229.616826 
L 160.446431 229.429082 
L 160.446431 229.429082 
L 160.446431 229.429082 
L 160.747019 229.237248 
L 160.747019 229.237248 
L 160.747019 229.237248 
L 161.043238 229.041382 
L 161.043238 229.041382 
L 161.043238 229.041382 
L 161.334995 228.841543 
L 161.334995 228.841543 
L 161.334995 228.841543 
L 161.622203 228.637792 
L 161.622203 228.637792 
L 161.622203 228.637792 
L 161.904775 228.430192 
L 161.904775 228.430192 
L 161.904775 228.430192 
L 162.182623 228.218805 
L 162.182623 228.218805 
L 162.182623 228.218805 
L 162.455664 228.003697 
L 162.455664 228.003697 
L 162.455664 228.003697 
L 162.723815 227.784932 
L 162.723815 227.784932 
L 162.723815 227.784932 
L 162.986993 227.562577 
L 162.986993 227.562577 
L 162.986993 227.562577 
L 163.245118 227.3367 
L 163.245118 227.3367 
L 163.245118 227.3367 
L 163.498112 227.10737 
L 163.498112 227.10737 
L 163.498112 227.10737 
L 163.745898 226.874656 
L 163.745898 226.874656 
L 163.745898 226.874656 
L 163.9884 226.63863 
L 163.9884 226.63863 
L 163.9884 226.63863 
L 164.225545 226.399364 
L 164.225545 226.399364 
L 164.225545 226.399364 
L 164.457259 226.156929 
L 164.457259 226.156929 
L 164.457259 226.156929 
L 164.683474 225.911401 
L 164.683474 225.911401 
L 164.683474 225.911401 
L 164.904119 225.662853 
L 164.904119 225.662853 
L 164.904119 225.662853 
L 165.119127 225.411363 
L 165.119127 225.411363 
L 165.119127 225.411363 
L 165.328434 225.157005 
L 165.328434 225.157005 
L 165.328434 225.157005 
L 165.531974 224.899858 
L 165.531974 224.899858 
L 165.531974 224.899858 
L 165.729687 224.64 
L 165.729687 224.64 
L 165.729687 224.64 
L 165.921512 224.37751 
L 165.921512 224.37751 
L 165.921512 224.37751 
L 166.10739 224.112469 
L 166.10739 224.112469 
L 166.10739 224.112469 
L 166.287266 223.844956 
L 166.287266 223.844956 
L 166.287266 223.844956 
L 166.461083 223.575053 
L 166.461083 223.575053 
L 166.461083 223.575053 
L 166.62879 223.302844 
L 166.62879 223.302844 
L 166.62879 223.302844 
L 166.790335 223.028409 
L 166.790335 223.028409 
L 166.790335 223.028409 
L 166.945668 222.751834 
L 166.945668 222.751834 
L 166.945668 222.751834 
L 167.094744 222.473202 
L 167.094744 222.473202 
L 167.094744 222.473202 
L 167.237515 222.192598 
L 167.237515 222.192598 
L 167.237515 222.192598 
L 167.373939 221.910108 
L 167.373939 221.910108 
L 167.373939 221.910108 
L 167.503975 221.625818 
L 167.503975 221.625818 
L 167.503975 221.625818 
L 167.627581 221.339814 
L 167.627581 221.339814 
L 167.627581 221.339814 
L 167.744722 221.052183 
L 167.744722 221.052183 
L 167.744722 221.052183 
L 167.855361 220.763014 
L 167.855361 220.763014 
L 167.855361 220.763014 
L 167.959464 220.472393 
L 167.959464 220.472393 
L 167.959464 220.472393 
L 168.057001 220.18041 
L 168.057001 220.18041 
L 168.057001 220.18041 
L 168.14794 219.887154 
L 168.14794 219.887154 
L 168.14794 219.887154 
L 168.232254 219.592714 
L 168.232254 219.592714 
L 168.232254 219.592714 
L 168.309919 219.297179 
L 168.309919 219.297179 
L 168.309919 219.297179 
L 168.380909 219.000641 
L 168.380909 219.000641 
L 168.380909 219.000641 
L 168.445204 218.703188 
L 168.445204 218.703188 
L 168.445204 218.703188 
L 168.502783 218.404911 
L 168.502783 218.404911 
L 168.502783 218.404911 
L 168.55363 218.105902 
L 168.55363 218.105902 
L 168.55363 218.105902 
L 168.597729 217.806252 
L 168.597729 217.806252 
L 168.597729 217.806252 
L 168.635066 217.506051 
L 168.635066 217.506051 
L 168.635066 217.506051 
L 168.66563 217.205392 
L 168.66563 217.205392 
L 168.66563 217.205392 
L 168.689411 216.904365 
L 168.689411 216.904365 
L 168.689411 216.904365 
L 168.706403 216.603063 
L 168.706403 216.603063 
L 168.706403 216.603063 
L 168.716601 216.301578 
L 168.716601 216.301578 
L 168.716601 216.301578 
L 168.72 216 
L 168.72 216 
L 168.72 216 
L 168.716601 215.698422 
L 168.716601 215.698422 
L 168.716601 215.698422 
L 168.706403 215.396937 
L 168.706403 215.396937 
L 168.706403 215.396937 
L 168.689411 215.095635 
L 168.689411 215.095635 
L 168.689411 215.095635 
L 168.66563 214.794608 
L 168.66563 214.794608 
L 168.66563 214.794608 
L 168.635066 214.493949 
L 168.635066 214.493949 
L 168.635066 214.493949 
L 168.597729 214.193748 
L 168.597729 214.193748 
L 168.597729 214.193748 
L 168.55363 213.894098 
L 168.55363 213.894098 
L 168.55363 213.894098 
L 168.502783 213.595089 
L 168.502783 213.595089 
L 168.502783 213.595089 
L 168.445204 213.296812 
L 168.445204 213.296812 
L 168.445204 213.296812 
L 168.380909 212.999359 
L 168.380909 212.999359 
L 168.380909 212.999359 
L 168.309919 212.702821 
L 168.309919 212.702821 
L 168.309919 212.702821 
L 168.232254 212.407286 
L 168.232254 212.407286 
L 168.232254 212.407286 
L 168.14794 212.112846 
L 168.14794 212.112846 
L 168.14794 212.112846 
L 168.057001 211.81959 
L 168.057001 211.81959 
L 168.057001 211.81959 
L 167.959464 211.527607 
L 167.959464 211.527607 
L 167.959464 211.527607 
L 167.855361 211.236986 
L 167.855361 211.236986 
L 167.855361 211.236986 
L 167.744722 210.947817 
L 167.744722 210.947817 
L 167.744722 210.947817 
L 167.627581 210.660186 
L 167.627581 210.660186 
L 167.627581 210.660186 
L 167.503975 210.374182 
L 167.503975 210.374182 
L 167.503975 210.374182 
L 167.373939 210.089892 
L 167.373939 210.089892 
L 167.373939 210.089892 
L 167.237515 209.807402 
L 167.237515 209.807402 
L 167.237515 209.807402 
L 167.094744 209.526798 
L 167.094744 209.526798 
L 167.094744 209.526798 
L 166.945668 209.248166 
L 166.945668 209.248166 
L 166.945668 209.248166 
L 166.790335 208.971591 
L 166.790335 208.971591 
L 166.790335 208.971591 
L 166.62879 208.697156 
L 166.62879 208.697156 
L 166.62879 208.697156 
L 166.461083 208.424947 
L 166.461083 208.424947 
L 166.461083 208.424947 
L 166.287266 208.155044 
L 166.287266 208.155044 
L 166.287266 208.155044 
L 166.10739 207.887531 
L 166.10739 207.887531 
L 166.10739 207.887531 
L 165.921512 207.62249 
L 165.921512 207.62249 
L 165.921512 207.62249 
L 165.729687 207.36 
L 165.729687 207.36 
L 165.729687 207.36 
L 165.531974 207.100142 
L 165.531974 207.100142 
L 165.531974 207.100142 
L 165.328434 206.842995 
L 165.328434 206.842995 
L 165.328434 206.842995 
L 165.119127 206.588637 
L 165.119127 206.588637 
L 165.119127 206.588637 
L 164.904119 206.337147 
L 164.904119 206.337147 
L 164.904119 206.337147 
L 164.683474 206.088599 
L 164.683474 206.088599 
L 164.683474 206.088599 
L 164.457259 205.843071 
L 164.457259 205.843071 
L 164.457259 205.843071 
L 164.225545 205.600636 
L 164.225545 205.600636 
L 164.225545 205.600636 
L 163.9884 205.36137 
L 163.9884 205.36137 
L 163.9884 205.36137 
L 163.745898 205.125344 
L 163.745898 205.125344 
L 163.745898 205.125344 
L 163.498112 204.89263 
L 163.498112 204.89263 
L 163.498112 204.89263 
L 163.245118 204.6633 
L 163.245118 204.6633 
L 163.245118 204.6633 
L 162.986993 204.437423 
L 162.986993 204.437423 
L 162.986993 204.437423 
L 162.723815 204.215068 
L 162.723815 204.215068 
L 162.723815 204.215068 
L 162.455664 203.996303 
L 162.455664 203.996303 
L 162.455664 203.996303 
L 162.182623 203.781195 
L 162.182623 203.781195 
L 162.182623 203.781195 
L 161.904775 203.569808 
L 161.904775 203.569808 
L 161.904775 203.569808 
L 161.622203 203.362208 
L 161.622203 203.362208 
L 161.622203 203.362208 
L 161.334995 203.158457 
L 161.334995 203.158457 
L 161.334995 203.158457 
L 161.043238 202.958618 
L 161.043238 202.958618 
L 161.043238 202.958618 
L 160.747019 202.762752 
L 160.747019 202.762752 
L 160.747019 202.762752 
L 160.446431 202.570918 
L 160.446431 202.570918 
L 160.446431 202.570918 
L 160.141564 202.383174 
L 160.141564 202.383174 
L 160.141564 202.383174 
L 159.832511 202.199578 
L 159.832511 202.199578 
L 159.832511 202.199578 
L 159.519367 202.020186 
L 159.519367 202.020186 
L 159.519367 202.020186 
L 159.202226 201.845053 
L 159.202226 201.845053 
L 159.202226 201.845053 
L 158.881186 201.674231 
L 158.881186 201.674231 
L 158.881186 201.674231 
L 158.556343 201.507773 
L 158.556343 201.507773 
L 158.556343 201.507773 
L 158.227798 201.345729 
L 158.227798 201.345729 
L 158.227798 201.345729 
L 157.89565 201.188149 
L 157.89565 201.188149 
L 157.89565 201.188149 
L 157.56 201.035081 
L 157.56 201.035081 
" style="fill:none;stroke:#ff0000;stroke-linecap:square;stroke-width:0.5;"/>
   </g>
   <g id="line2d_2">
    <path clip-path="url(#pb8e549006f)" d="M 258 365.64919 
L 261.356498 364.11851 
L 261.356498 364.11851 
L 261.356498 364.11851 
L 264.67798 362.542711 
L 264.67798 362.542711 
L 264.67798 362.542711 
L 267.963433 360.922274 
L 267.963433 360.922274 
L 267.963433 360.922274 
L 271.211856 359.257693 
L 271.211856 359.257693 
L 271.211856 359.257693 
L 274.422261 357.549473 
L 274.422261 357.549473 
L 274.422261 357.549473 
L 277.593668 355.798137 
L 277.593668 355.798137 
L 277.593668 355.798137 
L 280.725113 354.004216 
L 280.725113 354.004216 
L 280.725113 354.004216 
L 283.815641 352.168258 
L 283.815641 352.168258 
L 283.815641 352.168258 
L 286.864311 350.290822 
L 286.864311 350.290822 
L 286.864311 350.290822 
L 289.870194 348.37248 
L 289.870194 348.37248 
L 289.870194 348.37248 
L 292.832375 346.413815 
L 292.832375 346.413815 
L 292.832375 346.413815 
L 295.749951 344.415426 
L 295.749951 344.415426 
L 295.749951 344.415426 
L 298.622034 342.37792 
L 298.622034 342.37792 
L 298.622034 342.37792 
L 301.447748 340.301917 
L 301.447748 340.301917 
L 301.447748 340.301917 
L 304.226234 338.188052 
L 304.226234 338.188052 
L 304.226234 338.188052 
L 306.956643 336.036966 
L 306.956643 336.036966 
L 306.956643 336.036966 
L 309.638146 333.849317 
L 309.638146 333.849317 
L 309.638146 333.849317 
L 312.269925 331.625769 
L 312.269925 331.625769 
L 312.269925 331.625769 
L 314.851178 329.367 
L 314.851178 329.367 
L 314.851178 329.367 
L 317.38112 327.073699 
L 317.38112 327.073699 
L 317.38112 327.073699 
L 319.858979 324.746564 
L 319.858979 324.746564 
L 319.858979 324.746564 
L 322.284 322.386303 
L 322.284 322.386303 
L 322.284 322.386303 
L 324.655446 319.993636 
L 324.655446 319.993636 
L 324.655446 319.993636 
L 326.972593 317.569292 
L 326.972593 317.569292 
L 326.972593 317.569292 
L 329.234736 315.114008 
L 329.234736 315.114008 
L 329.234736 315.114008 
L 331.441186 312.628534 
L 331.441186 312.628534 
L 331.441186 312.628534 
L 333.591271 310.113625 
L 333.591271 310.113625 
L 333.591271 310.113625 
L 335.684335 307.570049 
L 335.684335 307.570049 
L 335.684335 307.570049 
L 337.719742 304.998579 
L 337.719742 304.998579 
L 337.719742 304.998579 
L 339.69687 302.4 
L 339.69687 302.4 
L 339.69687 302.4 
L 341.615119 299.775102 
L 341.615119 299.775102 
L 341.615119 299.775102 
L 343.473903 297.124686 
L 343.473903 297.124686 
L 343.473903 297.124686 
L 345.272656 294.449558 
L 345.272656 294.449558 
L 345.272656 294.449558 
L 347.010831 291.750534 
L 347.010831 291.750534 
L 347.010831 291.750534 
L 348.687898 289.028436 
L 348.687898 289.028436 
L 348.687898 289.028436 
L 350.303346 286.284092 
L 350.303346 286.284092 
L 350.303346 286.284092 
L 351.856683 283.518339 
L 351.856683 283.518339 
L 351.856683 283.518339 
L 353.347436 280.732019 
L 353.347436 280.732019 
L 353.347436 280.732019 
L 354.775151 277.925982 
L 354.775151 277.925982 
L 354.775151 277.925982 
L 356.139393 275.101081 
L 356.139393 275.101081 
L 356.139393 275.101081 
L 357.439746 272.258177 
L 357.439746 272.258177 
L 357.439746 272.258177 
L 358.675814 269.398137 
L 358.675814 269.398137 
L 358.675814 269.398137 
L 359.847222 266.521831 
L 359.847222 266.521831 
L 359.847222 266.521831 
L 360.953611 263.630135 
L 360.953611 263.630135 
L 360.953611 263.630135 
L 361.994644 260.723931 
L 361.994644 260.723931 
L 361.994644 260.723931 
L 362.970006 257.804104 
L 362.970006 257.804104 
L 362.970006 257.804104 
L 363.879398 254.871542 
L 363.879398 254.871542 
L 363.879398 254.871542 
L 364.722544 251.92714 
L 364.722544 251.92714 
L 364.722544 251.92714 
L 365.499187 248.971794 
L 365.499187 248.971794 
L 365.499187 248.971794 
L 366.20909 246.006405 
L 366.20909 246.006405 
L 366.20909 246.006405 
L 366.852038 243.031876 
L 366.852038 243.031876 
L 366.852038 243.031876 
L 367.427833 240.049112 
L 367.427833 240.049112 
L 367.427833 240.049112 
L 367.936301 237.059023 
L 367.936301 237.059023 
L 367.936301 237.059023 
L 368.377287 234.062518 
L 368.377287 234.062518 
L 368.377287 234.062518 
L 368.750657 231.060512 
L 368.750657 231.060512 
L 368.750657 231.060512 
L 369.056296 228.053919 
L 369.056296 228.053919 
L 369.056296 228.053919 
L 369.294112 225.043653 
L 369.294112 225.043653 
L 369.294112 225.043653 
L 369.464033 222.030633 
L 369.464033 222.030633 
L 369.464033 222.030633 
L 369.566006 219.015776 
L 369.566006 219.015776 
L 369.566006 219.015776 
L 369.6 216 
L 369.6 216 
L 369.6 216 
L 369.566006 212.984224 
L 369.566006 212.984224 
L 369.566006 212.984224 
L 369.464033 209.969367 
L 369.464033 209.969367 
L 369.464033 209.969367 
L 369.294112 206.956347 
L 369.294112 206.956347 
L 369.294112 206.956347 
L 369.056296 203.946081 
L 369.056296 203.946081 
L 369.056296 203.946081 
L 368.750657 200.939488 
L 368.750657 200.939488 
L 368.750657 200.939488 
L 368.377287 197.937482 
L 368.377287 197.937482 
L 368.377287 197.937482 
L 367.936301 194.940977 
L 367.936301 194.940977 
L 367.936301 194.940977 
L 367.427833 191.950888 
L 367.427833 191.950888 
L 367.427833 191.950888 
L 366.852038 188.968124 
L 366.852038 188.968124 
L 366.852038 188.968124 
L 366.20909 185.993595 
L 366.20909 185.993595 
L 366.20909 185.993595 
L 365.499187 183.028206 
L 365.499187 183.028206 
L 365.499187 183.028206 
L 364.722544 180.07286 
L 364.722544 180.07286 
L 364.722544 180.07286 
L 363.879398 177.128458 
L 363.879398 177.128458 
L 363.879398 177.128458 
L 362.970006 174.195896 
L 362.970006 174.195896 
L 362.970006 174.195896 
L 361.994644 171.276069 
L 361.994644 171.276069 
L 361.994644 171.276069 
L 360.953611 168.369865 
L 360.953611 168.369865 
L 360.953611 168.369865 
L 359.847222 165.478169 
L 359.847222 165.478169 
L 359.847222 165.478169 
L 358.675814 162.601863 
L 358.675814 162.601863 
L 358.675814 162.601863 
L 357.439746 159.741823 
L 357.439746 159.741823 
L 357.439746 159.741823 
L 356.139393 156.898919 
L 356.139393 156.898919 
L 356.139393 156.898919 
L 354.775151 154.074018 
L 354.775151 154.074018 
L 354.775151 154.074018 
L 353.347436 151.267981 
L 353.347436 151.267981 
L 353.347436 151.267981 
L 351.856683 148.481661 
L 351.856683 148.481661 
L 351.856683 148.481661 
L 350.303346 145.715908 
L 350.303346 145.715908 
L 350.303346 145.715908 
L 348.687898 142.971564 
L 348.687898 142.971564 
L 348.687898 142.971564 
L 347.010831 140.249466 
L 347.010831 140.249466 
L 347.010831 140.249466 
L 345.272656 137.550442 
L 345.272656 137.550442 
L 345.272656 137.550442 
L 343.473903 134.875314 
L 343.473903 134.875314 
L 343.473903 134.875314 
L 341.615119 132.224898 
L 341.615119 132.224898 
L 341.615119 132.224898 
L 339.69687 129.6 
L 339.69687 129.6 
L 339.69687 129.6 
L 337.719742 127.001421 
L 337.719742 127.001421 
L 337.719742 127.001421 
L 335.684335 124.429951 
L 335.684335 124.429951 
L 335.684335 124.429951 
L 333.591271 121.886375 
L 333.591271 121.886375 
L 333.591271 121.886375 
L 331.441186 119.371466 
L 331.441186 119.371466 
L 331.441186 119.371466 
L 329.234736 116.885992 
L 329.234736 116.885992 
L 329.234736 116.885992 
L 326.972593 114.430708 
L 326.972593 114.430708 
L 326.972593 114.430708 
L 324.655446 112.006364 
L 324.655446 112.006364 
L 324.655446 112.006364 
L 322.284 109.613697 
L 322.284 109.613697 
L 322.284 109.613697 
L 319.858979 107.253436 
L 319.858979 107.253436 
L 319.858979 107.253436 
L 317.38112 104.926301 
L 317.38112 104.926301 
L 317.38112 104.926301 
L 314.851178 102.633 
L 314.851178 102.633 
L 314.851178 102.633 
L 312.269925 100.374231 
L 312.269925 100.374231 
L 312.269925 100.374231 
L 309.638146 98.150683 
L 309.638146 98.150683 
L 309.638146 98.150683 
L 306.956643 95.963034 
L 306.956643 95.963034 
L 306.956643 95.963034 
L 304.226234 93.811948 
L 304.226234 93.811948 
L 304.226234 93.811948 
L 301.447748 91.698083 
L 301.447748 91.698083 
L 301.447748 91.698083 
L 298.622034 89.62208 
L 298.622034 89.62208 
L 298.622034 89.62208 
L 295.749951 87.584574 
L 295.749951 87.584574 
L 295.749951 87.584574 
L 292.832375 85.586185 
L 292.832375 85.586185 
L 292.832375 85.586185 
L 289.870194 83.62752 
L 289.870194 83.62752 
L 289.870194 83.62752 
L 286.864311 81.709178 
L 286.864311 81.709178 
L 286.864311 81.709178 
L 283.815641 79.831742 
L 283.815641 79.831742 
L 283.815641 79.831742 
L 280.725113 77.995784 
L 280.725113 77.995784 
L 280.725113 77.995784 
L 277.593668 76.201863 
L 277.593668 76.201863 
L 277.593668 76.201863 
L 274.422261 74.450527 
L 274.422261 74.450527 
L 274.422261 74.450527 
L 271.211856 72.742307 
L 271.211856 72.742307 
L 271.211856 72.742307 
L 267.963433 71.077726 
L 267.963433 71.077726 
L 267.963433 71.077726 
L 264.67798 69.457289 
L 264.67798 69.457289 
L 264.67798 69.457289 
L 261.356498 67.88149 
L 261.356498 67.88149 
L 261.356498 67.88149 
L 258 66.35081 
L 258 66.35081 
" style="fill:none;stroke:#ff0000;stroke-linecap:square;stroke-width:0.5;"/>
   </g>
   <g id="line2d_3">
    <path clip-path="url(#pb8e549006f)" d="M 157.56 230.964919 
L 157.932 231.46375 
L 157.932 231.46375 
L 157.932 231.46375 
L 158.304 231.96258 
L 158.304 231.96258 
L 158.304 231.96258 
L 158.676 232.461411 
L 158.676 232.461411 
L 158.676 232.461411 
L 159.048 232.960242 
L 159.048 232.960242 
L 159.048 232.960242 
L 159.42 233.459072 
L 159.42 233.459072 
L 159.42 233.459072 
L 159.792 233.957903 
L 159.792 233.957903 
L 159.792 233.957903 
L 160.164 234.456733 
L 160.164 234.456733 
L 160.164 234.456733 
L 160.536 234.955564 
L 160.536 234.955564 
L 160.536 234.955564 
L 160.908 235.454395 
L 160.908 235.454395 
L 160.908 235.454395 
L 161.28 235.953225 
L 161.28 235.953225 
L 161.28 235.953225 
L 161.652 236.452056 
L 161.652 236.452056 
L 161.652 236.452056 
L 162.024 236.950887 
L 162.024 236.950887 
L 162.024 236.950887 
L 162.396 237.449717 
L 162.396 237.449717 
L 162.396 237.449717 
L 162.768 237.948548 
L 162.768 237.948548 
L 162.768 237.948548 
L 163.14 238.447378 
L 163.14 238.447378 
L 163.14 238.447378 
L 163.512 238.946209 
L 163.512 238.946209 
L 163.512 238.946209 
L 163.884 239.44504 
L 163.884 239.44504 
L 163.884 239.44504 
L 164.256 239.94387 
L 164.256 239.94387 
L 164.256 239.94387 
L 164.628 240.442701 
L 164.628 240.442701 
L 164.628 240.442701 
L 165 240.941532 
L 165 240.941532 
L 165 240.941532 
L 165.372 241.440362 
L 165.372 241.440362 
L 165.372 241.440362 
L 165.744 241.939193 
L 165.744 241.939193 
L 165.744 241.939193 
L 166.116 242.438024 
L 166.116 242.438024 
L 166.116 242.438024 
L 166.488 242.936854 
L 166.488 242.936854 
L 166.488 242.936854 
L 166.86 243.435685 
L 166.86 243.435685 
L 166.86 243.435685 
L 167.232 243.934515 
L 167.232 243.934515 
L 167.232 243.934515 
L 167.604 244.433346 
L 167.604 244.433346 
L 167.604 244.433346 
L 167.976 244.932177 
L 167.976 244.932177 
L 167.976 244.932177 
L 168.348 245.431007 
L 168.348 245.431007 
L 168.348 245.431007 
L 168.72 245.929838 
L 168.72 245.929838 
L 168.72 245.929838 
L 169.092 246.428669 
L 169.092 246.428669 
L 169.092 246.428669 
L 169.464 246.927499 
L 169.464 246.927499 
L 169.464 246.927499 
L 169.836 247.42633 
L 169.836 247.42633 
L 169.836 247.42633 
L 170.208 247.92516 
L 170.208 247.92516 
L 170.208 247.92516 
L 170.58 248.423991 
L 170.58 248.423991 
L 170.58 248.423991 
L 170.952 248.922822 
L 170.952 248.922822 
L 170.952 248.922822 
L 171.324 249.421652 
L 171.324 249.421652 
L 171.324 249.421652 
L 171.696 249.920483 
L 171.696 249.920483 
L 171.696 249.920483 
L 172.068 250.419314 
L 172.068 250.419314 
L 172.068 250.419314 
L 172.44 250.918144 
L 172.44 250.918144 
L 172.44 250.918144 
L 172.812 251.416975 
L 172.812 251.416975 
L 172.812 251.416975 
L 173.184 251.915806 
L 173.184 251.915806 
L 173.184 251.915806 
L 173.556 252.414636 
L 173.556 252.414636 
L 173.556 252.414636 
L 173.928 252.913467 
L 173.928 252.913467 
L 173.928 252.913467 
L 174.3 253.412297 
L 174.3 253.412297 
L 174.3 253.412297 
L 174.672 253.911128 
L 174.672 253.911128 
L 174.672 253.911128 
L 175.044 254.409959 
L 175.044 254.409959 
L 175.044 254.409959 
L 175.416 254.908789 
L 175.416 254.908789 
L 175.416 254.908789 
L 175.788 255.40762 
L 175.788 255.40762 
L 175.788 255.40762 
L 176.16 255.906451 
L 176.16 255.906451 
L 176.16 255.906451 
L 176.532 256.405281 
L 176.532 256.405281 
L 176.532 256.405281 
L 176.904 256.904112 
L 176.904 256.904112 
L 176.904 256.904112 
L 177.276 257.402943 
L 177.276 257.402943 
L 177.276 257.402943 
L 177.648 257.901773 
L 177.648 257.901773 
L 177.648 257.901773 
L 178.02 258.400604 
L 178.02 258.400604 
L 178.02 258.400604 
L 178.392 258.899434 
L 178.392 258.899434 
L 178.392 258.899434 
L 178.764 259.398265 
L 178.764 259.398265 
L 178.764 259.398265 
L 179.136 259.897096 
L 179.136 259.897096 
L 179.136 259.897096 
L 179.508 260.395926 
L 179.508 260.395926 
L 179.508 260.395926 
L 179.88 260.894757 
L 179.88 260.894757 
L 179.88 260.894757 
L 180.252 261.393588 
L 180.252 261.393588 
L 180.252 261.393588 
L 180.624 261.892418 
L 180.624 261.892418 
L 180.624 261.892418 
L 180.996 262.391249 
L 180.996 262.391249 
L 180.996 262.391249 
L 181.368 262.890079 
L 181.368 262.890079 
L 181.368 262.890079 
L 181.74 263.38891 
L 181.74 263.38891 
L 181.74 263.38891 
L 182.112 263.887741 
L 182.112 263.887741 
L 182.112 263.887741 
L 182.484 264.386571 
L 182.484 264.386571 
L 182.484 264.386571 
L 182.856 264.885402 
L 182.856 264.885402 
L 182.856 264.885402 
L 183.228 265.384233 
L 183.228 265.384233 
L 183.228 265.384233 
L 183.6 265.883063 
L 183.6 265.883063 
L 183.6 265.883063 
L 183.972 266.381894 
L 183.972 266.381894 
L 183.972 266.381894 
L 184.344 266.880725 
L 184.344 266.880725 
L 184.344 266.880725 
L 184.716 267.379555 
L 184.716 267.379555 
L 184.716 267.379555 
L 185.088 267.878386 
L 185.088 267.878386 
L 185.088 267.878386 
L 185.46 268.377216 
L 185.46 268.377216 
L 185.46 268.377216 
L 185.832 268.876047 
L 185.832 268.876047 
L 185.832 268.876047 
L 186.204 269.374878 
L 186.204 269.374878 
L 186.204 269.374878 
L 186.576 269.873708 
L 186.576 269.873708 
L 186.576 269.873708 
L 186.948 270.372539 
L 186.948 270.372539 
L 186.948 270.372539 
L 187.32 270.87137 
L 187.32 270.87137 
L 187.32 270.87137 
L 187.692 271.3702 
L 187.692 271.3702 
L 187.692 271.3702 
L 188.064 271.869031 
L 188.064 271.869031 
L 188.064 271.869031 
L 188.436 272.367861 
L 188.436 272.367861 
L 188.436 272.367861 
L 188.808 272.866692 
L 188.808 272.866692 
L 188.808 272.866692 
L 189.18 273.365523 
L 189.18 273.365523 
L 189.18 273.365523 
L 189.552 273.864353 
L 189.552 273.864353 
L 189.552 273.864353 
L 189.924 274.363184 
L 189.924 274.363184 
L 189.924 274.363184 
L 190.296 274.862015 
L 190.296 274.862015 
L 190.296 274.862015 
L 190.668 275.360845 
L 190.668 275.360845 
L 190.668 275.360845 
L 191.04 275.859676 
L 191.04 275.859676 
L 191.04 275.859676 
L 191.412 276.358507 
L 191.412 276.358507 
L 191.412 276.358507 
L 191.784 276.857337 
L 191.784 276.857337 
L 191.784 276.857337 
L 192.156 277.356168 
L 192.156 277.356168 
L 192.156 277.356168 
L 192.528 277.854998 
L 192.528 277.854998 
L 192.528 277.854998 
L 192.9 278.353829 
L 192.9 278.353829 
L 192.9 278.353829 
L 193.272 278.85266 
L 193.272 278.85266 
L 193.272 278.85266 
L 193.644 279.35149 
L 193.644 279.35149 
L 193.644 279.35149 
L 194.016 279.850321 
L 194.016 279.850321 
L 194.016 279.850321 
L 194.388 280.349152 
L 194.388 280.349152 
L 194.388 280.349152 
L 194.76 280.847982 
L 194.76 280.847982 
L 194.76 280.847982 
L 195.132 281.346813 
L 195.132 281.346813 
L 195.132 281.346813 
L 195.504 281.845644 
L 195.504 281.845644 
L 195.504 281.845644 
L 195.876 282.344474 
L 195.876 282.344474 
L 195.876 282.344474 
L 196.248 282.843305 
L 196.248 282.843305 
L 196.248 282.843305 
L 196.62 283.342135 
L 196.62 283.342135 
L 196.62 283.342135 
L 196.992 283.840966 
L 196.992 283.840966 
L 196.992 283.840966 
L 197.364 284.339797 
L 197.364 284.339797 
L 197.364 284.339797 
L 197.736 284.838627 
L 197.736 284.838627 
L 197.736 284.838627 
L 198.108 285.337458 
L 198.108 285.337458 
L 198.108 285.337458 
L 198.48 285.836289 
L 198.48 285.836289 
L 198.48 285.836289 
L 198.852 286.335119 
L 198.852 286.335119 
L 198.852 286.335119 
L 199.224 286.83395 
L 199.224 286.83395 
L 199.224 286.83395 
L 199.596 287.33278 
L 199.596 287.33278 
L 199.596 287.33278 
L 199.968 287.831611 
L 199.968 287.831611 
L 199.968 287.831611 
L 200.34 288.330442 
L 200.34 288.330442 
L 200.34 288.330442 
L 200.712 288.829272 
L 200.712 288.829272 
L 200.712 288.829272 
L 201.084 289.328103 
L 201.084 289.328103 
L 201.084 289.328103 
L 201.456 289.826934 
L 201.456 289.826934 
L 201.456 289.826934 
L 201.828 290.325764 
L 201.828 290.325764 
L 201.828 290.325764 
L 202.2 290.824595 
L 202.2 290.824595 
L 202.2 290.824595 
L 202.572 291.323426 
L 202.572 291.323426 
L 202.572 291.323426 
L 202.944 291.822256 
L 202.944 291.822256 
L 202.944 291.822256 
L 203.316 292.321087 
L 203.316 292.321087 
L 203.316 292.321087 
L 203.688 292.819917 
L 203.688 292.819917 
L 203.688 292.819917 
L 204.06 293.318748 
L 204.06 293.318748 
L 204.06 293.318748 
L 204.432 293.817579 
L 204.432 293.817579 
L 204.432 293.817579 
L 204.804 294.316409 
L 204.804 294.316409 
L 204.804 294.316409 
L 205.176 294.81524 
L 205.176 294.81524 
L 205.176 294.81524 
L 205.548 295.314071 
L 205.548 295.314071 
L 205.548 295.314071 
L 205.92 295.812901 
L 205.92 295.812901 
L 205.92 295.812901 
L 206.292 296.311732 
L 206.292 296.311732 
L 206.292 296.311732 
L 206.664 296.810562 
L 206.664 296.810562 
L 206.664 296.810562 
L 207.036 297.309393 
L 207.036 297.309393 
L 207.036 297.309393 
L 207.408 297.808224 
L 207.408 297.808224 
L 207.408 297.808224 
L 207.78 298.307054 
L 207.78 298.307054 
L 207.78 298.307054 
L 208.152 298.805885 
L 208.152 298.805885 
L 208.152 298.805885 
L 208.524 299.304716 
L 208.524 299.304716 
L 208.524 299.304716 
L 208.896 299.803546 
L 208.896 299.803546 
L 208.896 299.803546 
L 209.268 300.302377 
L 209.268 300.302377 
L 209.268 300.302377 
L 209.64 300.801208 
L 209.64 300.801208 
L 209.64 300.801208 
L 210.012 301.300038 
L 210.012 301.300038 
L 210.012 301.300038 
L 210.384 301.798869 
L 210.384 301.798869 
L 210.384 301.798869 
L 210.756 302.297699 
L 210.756 302.297699 
L 210.756 302.297699 
L 211.128 302.79653 
L 211.128 302.79653 
L 211.128 302.79653 
L 211.5 303.295361 
L 211.5 303.295361 
L 211.5 303.295361 
L 211.872 303.794191 
L 211.872 303.794191 
L 211.872 303.794191 
L 212.244 304.293022 
L 212.244 304.293022 
L 212.244 304.293022 
L 212.616 304.791853 
L 212.616 304.791853 
L 212.616 304.791853 
L 212.988 305.290683 
L 212.988 305.290683 
L 212.988 305.290683 
L 213.36 305.789514 
L 213.36 305.789514 
L 213.36 305.789514 
L 213.732 306.288344 
L 213.732 306.288344 
L 213.732 306.288344 
L 214.104 306.787175 
L 214.104 306.787175 
L 214.104 306.787175 
L 214.476 307.286006 
L 214.476 307.286006 
L 214.476 307.286006 
L 214.848 307.784836 
L 214.848 307.784836 
L 214.848 307.784836 
L 215.22 308.283667 
L 215.22 308.283667 
L 215.22 308.283667 
L 215.592 308.782498 
L 215.592 308.782498 
L 215.592 308.782498 
L 215.964 309.281328 
L 215.964 309.281328 
L 215.964 309.281328 
L 216.336 309.780159 
L 216.336 309.780159 
L 216.336 309.780159 
L 216.708 310.27899 
L 216.708 310.27899 
L 216.708 310.27899 
L 217.08 310.77782 
L 217.08 310.77782 
L 217.08 310.77782 
L 217.452 311.276651 
L 217.452 311.276651 
L 217.452 311.276651 
L 217.824 311.775481 
L 217.824 311.775481 
L 217.824 311.775481 
L 218.196 312.274312 
L 218.196 312.274312 
L 218.196 312.274312 
L 218.568 312.773143 
L 218.568 312.773143 
L 218.568 312.773143 
L 218.94 313.271973 
L 218.94 313.271973 
L 218.94 313.271973 
L 219.312 313.770804 
L 219.312 313.770804 
L 219.312 313.770804 
L 219.684 314.269635 
L 219.684 314.269635 
L 219.684 314.269635 
L 220.056 314.768465 
L 220.056 314.768465 
L 220.056 314.768465 
L 220.428 315.267296 
L 220.428 315.267296 
L 220.428 315.267296 
L 220.8 315.766127 
L 220.8 315.766127 
L 220.8 315.766127 
L 221.172 316.264957 
L 221.172 316.264957 
L 221.172 316.264957 
L 221.544 316.763788 
L 221.544 316.763788 
L 221.544 316.763788 
L 221.916 317.262618 
L 221.916 317.262618 
L 221.916 317.262618 
L 222.288 317.761449 
L 222.288 317.761449 
L 222.288 317.761449 
L 222.66 318.26028 
L 222.66 318.26028 
L 222.66 318.26028 
L 223.032 318.75911 
L 223.032 318.75911 
L 223.032 318.75911 
L 223.404 319.257941 
L 223.404 319.257941 
L 223.404 319.257941 
L 223.776 319.756772 
L 223.776 319.756772 
L 223.776 319.756772 
L 224.148 320.255602 
L 224.148 320.255602 
L 224.148 320.255602 
L 224.52 320.754433 
L 224.52 320.754433 
L 224.52 320.754433 
L 224.892 321.253263 
L 224.892 321.253263 
L 224.892 321.253263 
L 225.264 321.752094 
L 225.264 321.752094 
L 225.264 321.752094 
L 225.636 322.250925 
L 225.636 322.250925 
L 225.636 322.250925 
L 226.008 322.749755 
L 226.008 322.749755 
L 226.008 322.749755 
L 226.38 323.248586 
L 226.38 323.248586 
L 226.38 323.248586 
L 226.752 323.747417 
L 226.752 323.747417 
L 226.752 323.747417 
L 227.124 324.246247 
L 227.124 324.246247 
L 227.124 324.246247 
L 227.496 324.745078 
L 227.496 324.745078 
L 227.496 324.745078 
L 227.868 325.243909 
L 227.868 325.243909 
L 227.868 325.243909 
L 228.24 325.742739 
L 228.24 325.742739 
L 228.24 325.742739 
L 228.612 326.24157 
L 228.612 326.24157 
L 228.612 326.24157 
L 228.984 326.7404 
L 228.984 326.7404 
L 228.984 326.7404 
L 229.356 327.239231 
L 229.356 327.239231 
L 229.356 327.239231 
L 229.728 327.738062 
L 229.728 327.738062 
L 229.728 327.738062 
L 230.1 328.236892 
L 230.1 328.236892 
L 230.1 328.236892 
L 230.472 328.735723 
L 230.472 328.735723 
L 230.472 328.735723 
L 230.844 329.234554 
L 230.844 329.234554 
L 230.844 329.234554 
L 231.216 329.733384 
L 231.216 329.733384 
L 231.216 329.733384 
L 231.588 330.232215 
L 231.588 330.232215 
L 231.588 330.232215 
L 231.96 330.731045 
L 231.96 330.731045 
L 231.96 330.731045 
L 232.332 331.229876 
L 232.332 331.229876 
L 232.332 331.229876 
L 232.704 331.728707 
L 232.704 331.728707 
L 232.704 331.728707 
L 233.076 332.227537 
L 233.076 332.227537 
L 233.076 332.227537 
L 233.448 332.726368 
L 233.448 332.726368 
L 233.448 332.726368 
L 233.82 333.225199 
L 233.82 333.225199 
L 233.82 333.225199 
L 234.192 333.724029 
L 234.192 333.724029 
L 234.192 333.724029 
L 234.564 334.22286 
L 234.564 334.22286 
L 234.564 334.22286 
L 234.936 334.721691 
L 234.936 334.721691 
L 234.936 334.721691 
L 235.308 335.220521 
L 235.308 335.220521 
L 235.308 335.220521 
L 235.68 335.719352 
L 235.68 335.719352 
L 235.68 335.719352 
L 236.052 336.218182 
L 236.052 336.218182 
L 236.052 336.218182 
L 236.424 336.717013 
L 236.424 336.717013 
L 236.424 336.717013 
L 236.796 337.215844 
L 236.796 337.215844 
L 236.796 337.215844 
L 237.168 337.714674 
L 237.168 337.714674 
L 237.168 337.714674 
L 237.54 338.213505 
L 237.54 338.213505 
L 237.54 338.213505 
L 237.912 338.712336 
L 237.912 338.712336 
L 237.912 338.712336 
L 238.284 339.211166 
L 238.284 339.211166 
L 238.284 339.211166 
L 238.656 339.709997 
L 238.656 339.709997 
L 238.656 339.709997 
L 239.028 340.208828 
L 239.028 340.208828 
L 239.028 340.208828 
L 239.4 340.707658 
L 239.4 340.707658 
L 239.4 340.707658 
L 239.772 341.206489 
L 239.772 341.206489 
L 239.772 341.206489 
L 240.144 341.705319 
L 240.144 341.705319 
L 240.144 341.705319 
L 240.516 342.20415 
L 240.516 342.20415 
L 240.516 342.20415 
L 240.888 342.702981 
L 240.888 342.702981 
L 240.888 342.702981 
L 241.26 343.201811 
L 241.26 343.201811 
L 241.26 343.201811 
L 241.632 343.700642 
L 241.632 343.700642 
L 241.632 343.700642 
L 242.004 344.199473 
L 242.004 344.199473 
L 242.004 344.199473 
L 242.376 344.698303 
L 242.376 344.698303 
L 242.376 344.698303 
L 242.748 345.197134 
L 242.748 345.197134 
L 242.748 345.197134 
L 243.12 345.695964 
L 243.12 345.695964 
L 243.12 345.695964 
L 243.492 346.194795 
L 243.492 346.194795 
L 243.492 346.194795 
L 243.864 346.693626 
L 243.864 346.693626 
L 243.864 346.693626 
L 244.236 347.192456 
L 244.236 347.192456 
L 244.236 347.192456 
L 244.608 347.691287 
L 244.608 347.691287 
L 244.608 347.691287 
L 244.98 348.190118 
L 244.98 348.190118 
L 244.98 348.190118 
L 245.352 348.688948 
L 245.352 348.688948 
L 245.352 348.688948 
L 245.724 349.187779 
L 245.724 349.187779 
L 245.724 349.187779 
L 246.096 349.68661 
L 246.096 349.68661 
L 246.096 349.68661 
L 246.468 350.18544 
L 246.468 350.18544 
L 246.468 350.18544 
L 246.84 350.684271 
L 246.84 350.684271 
L 246.84 350.684271 
L 247.212 351.183101 
L 247.212 351.183101 
L 247.212 351.183101 
L 247.584 351.681932 
L 247.584 351.681932 
L 247.584 351.681932 
L 247.956 352.180763 
L 247.956 352.180763 
L 247.956 352.180763 
L 248.328 352.679593 
L 248.328 352.679593 
L 248.328 352.679593 
L 248.7 353.178424 
L 248.7 353.178424 
L 248.7 353.178424 
L 249.072 353.677255 
L 249.072 353.677255 
L 249.072 353.677255 
L 249.444 354.176085 
L 249.444 354.176085 
L 249.444 354.176085 
L 249.816 354.674916 
L 249.816 354.674916 
L 249.816 354.674916 
L 250.188 355.173746 
L 250.188 355.173746 
L 250.188 355.173746 
L 250.56 355.672577 
L 250.56 355.672577 
L 250.56 355.672577 
L 250.932 356.171408 
L 250.932 356.171408 
L 250.932 356.171408 
L 251.304 356.670238 
L 251.304 356.670238 
L 251.304 356.670238 
L 251.676 357.169069 
L 251.676 357.169069 
L 251.676 357.169069 
L 252.048 357.6679 
L 252.048 357.6679 
L 252.048 357.6679 
L 252.42 358.16673 
L 252.42 358.16673 
L 252.42 358.16673 
L 252.792 358.665561 
L 252.792 358.665561 
L 252.792 358.665561 
L 253.164 359.164392 
L 253.164 359.164392 
L 253.164 359.164392 
L 253.536 359.663222 
L 253.536 359.663222 
L 253.536 359.663222 
L 253.908 360.162053 
L 253.908 360.162053 
L 253.908 360.162053 
L 254.28 360.660883 
L 254.28 360.660883 
L 254.28 360.660883 
L 254.652 361.159714 
L 254.652 361.159714 
L 254.652 361.159714 
L 255.024 361.658545 
L 255.024 361.658545 
L 255.024 361.658545 
L 255.396 362.157375 
L 255.396 362.157375 
L 255.396 362.157375 
L 255.768 362.656206 
L 255.768 362.656206 
L 255.768 362.656206 
L 256.14 363.155037 
L 256.14 363.155037 
L 256.14 363.155037 
L 256.512 363.653867 
L 256.512 363.653867 
L 256.512 363.653867 
L 256.884 364.152698 
L 256.884 364.152698 
L 256.884 364.152698 
L 257.256 364.651529 
L 257.256 364.651529 
L 257.256 364.651529 
L 257.628 365.150359 
L 257.628 365.150359 
L 257.628 365.150359 
L 258 365.64919 
L 258 365.64919 
" style="fill:none;stroke:#ff0000;stroke-linecap:square;stroke-width:0.5;"/>
   </g>
   <g id="line2d_4">
    <path clip-path="url(#pb8e549006f)" d="M 157.56 201.035081 
L 157.932 200.53625 
L 157.932 200.53625 
L 157.932 200.53625 
L 158.304 200.03742 
L 158.304 200.03742 
L 158.304 200.03742 
L 158.676 199.538589 
L 158.676 199.538589 
L 158.676 199.538589 
L 159.048 199.039758 
L 159.048 199.039758 
L 159.048 199.039758 
L 159.42 198.540928 
L 159.42 198.540928 
L 159.42 198.540928 
L 159.792 198.042097 
L 159.792 198.042097 
L 159.792 198.042097 
L 160.164 197.543267 
L 160.164 197.543267 
L 160.164 197.543267 
L 160.536 197.044436 
L 160.536 197.044436 
L 160.536 197.044436 
L 160.908 196.545605 
L 160.908 196.545605 
L 160.908 196.545605 
L 161.28 196.046775 
L 161.28 196.046775 
L 161.28 196.046775 
L 161.652 195.547944 
L 161.652 195.547944 
L 161.652 195.547944 
L 162.024 195.049113 
L 162.024 195.049113 
L 162.024 195.049113 
L 162.396 194.550283 
L 162.396 194.550283 
L 162.396 194.550283 
L 162.768 194.051452 
L 162.768 194.051452 
L 162.768 194.051452 
L 163.14 193.552622 
L 163.14 193.552622 
L 163.14 193.552622 
L 163.512 193.053791 
L 163.512 193.053791 
L 163.512 193.053791 
L 163.884 192.55496 
L 163.884 192.55496 
L 163.884 192.55496 
L 164.256 192.05613 
L 164.256 192.05613 
L 164.256 192.05613 
L 164.628 191.557299 
L 164.628 191.557299 
L 164.628 191.557299 
L 165 191.058468 
L 165 191.058468 
L 165 191.058468 
L 165.372 190.559638 
L 165.372 190.559638 
L 165.372 190.559638 
L 165.744 190.060807 
L 165.744 190.060807 
L 165.744 190.060807 
L 166.116 189.561976 
L 166.116 189.561976 
L 166.116 189.561976 
L 166.488 189.063146 
L 166.488 189.063146 
L 166.488 189.063146 
L 166.86 188.564315 
L 166.86 188.564315 
L 166.86 188.564315 
L 167.232 188.065485 
L 167.232 188.065485 
L 167.232 188.065485 
L 167.604 187.566654 
L 167.604 187.566654 
L 167.604 187.566654 
L 167.976 187.067823 
L 167.976 187.067823 
L 167.976 187.067823 
L 168.348 186.568993 
L 168.348 186.568993 
L 168.348 186.568993 
L 168.72 186.070162 
L 168.72 186.070162 
L 168.72 186.070162 
L 169.092 185.571331 
L 169.092 185.571331 
L 169.092 185.571331 
L 169.464 185.072501 
L 169.464 185.072501 
L 169.464 185.072501 
L 169.836 184.57367 
L 169.836 184.57367 
L 169.836 184.57367 
L 170.208 184.07484 
L 170.208 184.07484 
L 170.208 184.07484 
L 170.58 183.576009 
L 170.58 183.576009 
L 170.58 183.576009 
L 170.952 183.077178 
L 170.952 183.077178 
L 170.952 183.077178 
L 171.324 182.578348 
L 171.324 182.578348 
L 171.324 182.578348 
L 171.696 182.079517 
L 171.696 182.079517 
L 171.696 182.079517 
L 172.068 181.580686 
L 172.068 181.580686 
L 172.068 181.580686 
L 172.44 181.081856 
L 172.44 181.081856 
L 172.44 181.081856 
L 172.812 180.583025 
L 172.812 180.583025 
L 172.812 180.583025 
L 173.184 180.084194 
L 173.184 180.084194 
L 173.184 180.084194 
L 173.556 179.585364 
L 173.556 179.585364 
L 173.556 179.585364 
L 173.928 179.086533 
L 173.928 179.086533 
L 173.928 179.086533 
L 174.3 178.587703 
L 174.3 178.587703 
L 174.3 178.587703 
L 174.672 178.088872 
L 174.672 178.088872 
L 174.672 178.088872 
L 175.044 177.590041 
L 175.044 177.590041 
L 175.044 177.590041 
L 175.416 177.091211 
L 175.416 177.091211 
L 175.416 177.091211 
L 175.788 176.59238 
L 175.788 176.59238 
L 175.788 176.59238 
L 176.16 176.093549 
L 176.16 176.093549 
L 176.16 176.093549 
L 176.532 175.594719 
L 176.532 175.594719 
L 176.532 175.594719 
L 176.904 175.095888 
L 176.904 175.095888 
L 176.904 175.095888 
L 177.276 174.597057 
L 177.276 174.597057 
L 177.276 174.597057 
L 177.648 174.098227 
L 177.648 174.098227 
L 177.648 174.098227 
L 178.02 173.599396 
L 178.02 173.599396 
L 178.02 173.599396 
L 178.392 173.100566 
L 178.392 173.100566 
L 178.392 173.100566 
L 178.764 172.601735 
L 178.764 172.601735 
L 178.764 172.601735 
L 179.136 172.102904 
L 179.136 172.102904 
L 179.136 172.102904 
L 179.508 171.604074 
L 179.508 171.604074 
L 179.508 171.604074 
L 179.88 171.105243 
L 179.88 171.105243 
L 179.88 171.105243 
L 180.252 170.606412 
L 180.252 170.606412 
L 180.252 170.606412 
L 180.624 170.107582 
L 180.624 170.107582 
L 180.624 170.107582 
L 180.996 169.608751 
L 180.996 169.608751 
L 180.996 169.608751 
L 181.368 169.109921 
L 181.368 169.109921 
L 181.368 169.109921 
L 181.74 168.61109 
L 181.74 168.61109 
L 181.74 168.61109 
L 182.112 168.112259 
L 182.112 168.112259 
L 182.112 168.112259 
L 182.484 167.613429 
L 182.484 167.613429 
L 182.484 167.613429 
L 182.856 167.114598 
L 182.856 167.114598 
L 182.856 167.114598 
L 183.228 166.615767 
L 183.228 166.615767 
L 183.228 166.615767 
L 183.6 166.116937 
L 183.6 166.116937 
L 183.6 166.116937 
L 183.972 165.618106 
L 183.972 165.618106 
L 183.972 165.618106 
L 184.344 165.119275 
L 184.344 165.119275 
L 184.344 165.119275 
L 184.716 164.620445 
L 184.716 164.620445 
L 184.716 164.620445 
L 185.088 164.121614 
L 185.088 164.121614 
L 185.088 164.121614 
L 185.46 163.622784 
L 185.46 163.622784 
L 185.46 163.622784 
L 185.832 163.123953 
L 185.832 163.123953 
L 185.832 163.123953 
L 186.204 162.625122 
L 186.204 162.625122 
L 186.204 162.625122 
L 186.576 162.126292 
L 186.576 162.126292 
L 186.576 162.126292 
L 186.948 161.627461 
L 186.948 161.627461 
L 186.948 161.627461 
L 187.32 161.12863 
L 187.32 161.12863 
L 187.32 161.12863 
L 187.692 160.6298 
L 187.692 160.6298 
L 187.692 160.6298 
L 188.064 160.130969 
L 188.064 160.130969 
L 188.064 160.130969 
L 188.436 159.632139 
L 188.436 159.632139 
L 188.436 159.632139 
L 188.808 159.133308 
L 188.808 159.133308 
L 188.808 159.133308 
L 189.18 158.634477 
L 189.18 158.634477 
L 189.18 158.634477 
L 189.552 158.135647 
L 189.552 158.135647 
L 189.552 158.135647 
L 189.924 157.636816 
L 189.924 157.636816 
L 189.924 157.636816 
L 190.296 157.137985 
L 190.296 157.137985 
L 190.296 157.137985 
L 190.668 156.639155 
L 190.668 156.639155 
L 190.668 156.639155 
L 191.04 156.140324 
L 191.04 156.140324 
L 191.04 156.140324 
L 191.412 155.641493 
L 191.412 155.641493 
L 191.412 155.641493 
L 191.784 155.142663 
L 191.784 155.142663 
L 191.784 155.142663 
L 192.156 154.643832 
L 192.156 154.643832 
L 192.156 154.643832 
L 192.528 154.145002 
L 192.528 154.145002 
L 192.528 154.145002 
L 192.9 153.646171 
L 192.9 153.646171 
L 192.9 153.646171 
L 193.272 153.14734 
L 193.272 153.14734 
L 193.272 153.14734 
L 193.644 152.64851 
L 193.644 152.64851 
L 193.644 152.64851 
L 194.016 152.149679 
L 194.016 152.149679 
L 194.016 152.149679 
L 194.388 151.650848 
L 194.388 151.650848 
L 194.388 151.650848 
L 194.76 151.152018 
L 194.76 151.152018 
L 194.76 151.152018 
L 195.132 150.653187 
L 195.132 150.653187 
L 195.132 150.653187 
L 195.504 150.154356 
L 195.504 150.154356 
L 195.504 150.154356 
L 195.876 149.655526 
L 195.876 149.655526 
L 195.876 149.655526 
L 196.248 149.156695 
L 196.248 149.156695 
L 196.248 149.156695 
L 196.62 148.657865 
L 196.62 148.657865 
L 196.62 148.657865 
L 196.992 148.159034 
L 196.992 148.159034 
L 196.992 148.159034 
L 197.364 147.660203 
L 197.364 147.660203 
L 197.364 147.660203 
L 197.736 147.161373 
L 197.736 147.161373 
L 197.736 147.161373 
L 198.108 146.662542 
L 198.108 146.662542 
L 198.108 146.662542 
L 198.48 146.163711 
L 198.48 146.163711 
L 198.48 146.163711 
L 198.852 145.664881 
L 198.852 145.664881 
L 198.852 145.664881 
L 199.224 145.16605 
L 199.224 145.16605 
L 199.224 145.16605 
L 199.596 144.66722 
L 199.596 144.66722 
L 199.596 144.66722 
L 199.968 144.168389 
L 199.968 144.168389 
L 199.968 144.168389 
L 200.34 143.669558 
L 200.34 143.669558 
L 200.34 143.669558 
L 200.712 143.170728 
L 200.712 143.170728 
L 200.712 143.170728 
L 201.084 142.671897 
L 201.084 142.671897 
L 201.084 142.671897 
L 201.456 142.173066 
L 201.456 142.173066 
L 201.456 142.173066 
L 201.828 141.674236 
L 201.828 141.674236 
L 201.828 141.674236 
L 202.2 141.175405 
L 202.2 141.175405 
L 202.2 141.175405 
L 202.572 140.676574 
L 202.572 140.676574 
L 202.572 140.676574 
L 202.944 140.177744 
L 202.944 140.177744 
L 202.944 140.177744 
L 203.316 139.678913 
L 203.316 139.678913 
L 203.316 139.678913 
L 203.688 139.180083 
L 203.688 139.180083 
L 203.688 139.180083 
L 204.06 138.681252 
L 204.06 138.681252 
L 204.06 138.681252 
L 204.432 138.182421 
L 204.432 138.182421 
L 204.432 138.182421 
L 204.804 137.683591 
L 204.804 137.683591 
L 204.804 137.683591 
L 205.176 137.18476 
L 205.176 137.18476 
L 205.176 137.18476 
L 205.548 136.685929 
L 205.548 136.685929 
L 205.548 136.685929 
L 205.92 136.187099 
L 205.92 136.187099 
L 205.92 136.187099 
L 206.292 135.688268 
L 206.292 135.688268 
L 206.292 135.688268 
L 206.664 135.189438 
L 206.664 135.189438 
L 206.664 135.189438 
L 207.036 134.690607 
L 207.036 134.690607 
L 207.036 134.690607 
L 207.408 134.191776 
L 207.408 134.191776 
L 207.408 134.191776 
L 207.78 133.692946 
L 207.78 133.692946 
L 207.78 133.692946 
L 208.152 133.194115 
L 208.152 133.194115 
L 208.152 133.194115 
L 208.524 132.695284 
L 208.524 132.695284 
L 208.524 132.695284 
L 208.896 132.196454 
L 208.896 132.196454 
L 208.896 132.196454 
L 209.268 131.697623 
L 209.268 131.697623 
L 209.268 131.697623 
L 209.64 131.198792 
L 209.64 131.198792 
L 209.64 131.198792 
L 210.012 130.699962 
L 210.012 130.699962 
L 210.012 130.699962 
L 210.384 130.201131 
L 210.384 130.201131 
L 210.384 130.201131 
L 210.756 129.702301 
L 210.756 129.702301 
L 210.756 129.702301 
L 211.128 129.20347 
L 211.128 129.20347 
L 211.128 129.20347 
L 211.5 128.704639 
L 211.5 128.704639 
L 211.5 128.704639 
L 211.872 128.205809 
L 211.872 128.205809 
L 211.872 128.205809 
L 212.244 127.706978 
L 212.244 127.706978 
L 212.244 127.706978 
L 212.616 127.208147 
L 212.616 127.208147 
L 212.616 127.208147 
L 212.988 126.709317 
L 212.988 126.709317 
L 212.988 126.709317 
L 213.36 126.210486 
L 213.36 126.210486 
L 213.36 126.210486 
L 213.732 125.711656 
L 213.732 125.711656 
L 213.732 125.711656 
L 214.104 125.212825 
L 214.104 125.212825 
L 214.104 125.212825 
L 214.476 124.713994 
L 214.476 124.713994 
L 214.476 124.713994 
L 214.848 124.215164 
L 214.848 124.215164 
L 214.848 124.215164 
L 215.22 123.716333 
L 215.22 123.716333 
L 215.22 123.716333 
L 215.592 123.217502 
L 215.592 123.217502 
L 215.592 123.217502 
L 215.964 122.718672 
L 215.964 122.718672 
L 215.964 122.718672 
L 216.336 122.219841 
L 216.336 122.219841 
L 216.336 122.219841 
L 216.708 121.72101 
L 216.708 121.72101 
L 216.708 121.72101 
L 217.08 121.22218 
L 217.08 121.22218 
L 217.08 121.22218 
L 217.452 120.723349 
L 217.452 120.723349 
L 217.452 120.723349 
L 217.824 120.224519 
L 217.824 120.224519 
L 217.824 120.224519 
L 218.196 119.725688 
L 218.196 119.725688 
L 218.196 119.725688 
L 218.568 119.226857 
L 218.568 119.226857 
L 218.568 119.226857 
L 218.94 118.728027 
L 218.94 118.728027 
L 218.94 118.728027 
L 219.312 118.229196 
L 219.312 118.229196 
L 219.312 118.229196 
L 219.684 117.730365 
L 219.684 117.730365 
L 219.684 117.730365 
L 220.056 117.231535 
L 220.056 117.231535 
L 220.056 117.231535 
L 220.428 116.732704 
L 220.428 116.732704 
L 220.428 116.732704 
L 220.8 116.233873 
L 220.8 116.233873 
L 220.8 116.233873 
L 221.172 115.735043 
L 221.172 115.735043 
L 221.172 115.735043 
L 221.544 115.236212 
L 221.544 115.236212 
L 221.544 115.236212 
L 221.916 114.737382 
L 221.916 114.737382 
L 221.916 114.737382 
L 222.288 114.238551 
L 222.288 114.238551 
L 222.288 114.238551 
L 222.66 113.73972 
L 222.66 113.73972 
L 222.66 113.73972 
L 223.032 113.24089 
L 223.032 113.24089 
L 223.032 113.24089 
L 223.404 112.742059 
L 223.404 112.742059 
L 223.404 112.742059 
L 223.776 112.243228 
L 223.776 112.243228 
L 223.776 112.243228 
L 224.148 111.744398 
L 224.148 111.744398 
L 224.148 111.744398 
L 224.52 111.245567 
L 224.52 111.245567 
L 224.52 111.245567 
L 224.892 110.746737 
L 224.892 110.746737 
L 224.892 110.746737 
L 225.264 110.247906 
L 225.264 110.247906 
L 225.264 110.247906 
L 225.636 109.749075 
L 225.636 109.749075 
L 225.636 109.749075 
L 226.008 109.250245 
L 226.008 109.250245 
L 226.008 109.250245 
L 226.38 108.751414 
L 226.38 108.751414 
L 226.38 108.751414 
L 226.752 108.252583 
L 226.752 108.252583 
L 226.752 108.252583 
L 227.124 107.753753 
L 227.124 107.753753 
L 227.124 107.753753 
L 227.496 107.254922 
L 227.496 107.254922 
L 227.496 107.254922 
L 227.868 106.756091 
L 227.868 106.756091 
L 227.868 106.756091 
L 228.24 106.257261 
L 228.24 106.257261 
L 228.24 106.257261 
L 228.612 105.75843 
L 228.612 105.75843 
L 228.612 105.75843 
L 228.984 105.2596 
L 228.984 105.2596 
L 228.984 105.2596 
L 229.356 104.760769 
L 229.356 104.760769 
L 229.356 104.760769 
L 229.728 104.261938 
L 229.728 104.261938 
L 229.728 104.261938 
L 230.1 103.763108 
L 230.1 103.763108 
L 230.1 103.763108 
L 230.472 103.264277 
L 230.472 103.264277 
L 230.472 103.264277 
L 230.844 102.765446 
L 230.844 102.765446 
L 230.844 102.765446 
L 231.216 102.266616 
L 231.216 102.266616 
L 231.216 102.266616 
L 231.588 101.767785 
L 231.588 101.767785 
L 231.588 101.767785 
L 231.96 101.268955 
L 231.96 101.268955 
L 231.96 101.268955 
L 232.332 100.770124 
L 232.332 100.770124 
L 232.332 100.770124 
L 232.704 100.271293 
L 232.704 100.271293 
L 232.704 100.271293 
L 233.076 99.772463 
L 233.076 99.772463 
L 233.076 99.772463 
L 233.448 99.273632 
L 233.448 99.273632 
L 233.448 99.273632 
L 233.82 98.774801 
L 233.82 98.774801 
L 233.82 98.774801 
L 234.192 98.275971 
L 234.192 98.275971 
L 234.192 98.275971 
L 234.564 97.77714 
L 234.564 97.77714 
L 234.564 97.77714 
L 234.936 97.278309 
L 234.936 97.278309 
L 234.936 97.278309 
L 235.308 96.779479 
L 235.308 96.779479 
L 235.308 96.779479 
L 235.68 96.280648 
L 235.68 96.280648 
L 235.68 96.280648 
L 236.052 95.781818 
L 236.052 95.781818 
L 236.052 95.781818 
L 236.424 95.282987 
L 236.424 95.282987 
L 236.424 95.282987 
L 236.796 94.784156 
L 236.796 94.784156 
L 236.796 94.784156 
L 237.168 94.285326 
L 237.168 94.285326 
L 237.168 94.285326 
L 237.54 93.786495 
L 237.54 93.786495 
L 237.54 93.786495 
L 237.912 93.287664 
L 237.912 93.287664 
L 237.912 93.287664 
L 238.284 92.788834 
L 238.284 92.788834 
L 238.284 92.788834 
L 238.656 92.290003 
L 238.656 92.290003 
L 238.656 92.290003 
L 239.028 91.791172 
L 239.028 91.791172 
L 239.028 91.791172 
L 239.4 91.292342 
L 239.4 91.292342 
L 239.4 91.292342 
L 239.772 90.793511 
L 239.772 90.793511 
L 239.772 90.793511 
L 240.144 90.294681 
L 240.144 90.294681 
L 240.144 90.294681 
L 240.516 89.79585 
L 240.516 89.79585 
L 240.516 89.79585 
L 240.888 89.297019 
L 240.888 89.297019 
L 240.888 89.297019 
L 241.26 88.798189 
L 241.26 88.798189 
L 241.26 88.798189 
L 241.632 88.299358 
L 241.632 88.299358 
L 241.632 88.299358 
L 242.004 87.800527 
L 242.004 87.800527 
L 242.004 87.800527 
L 242.376 87.301697 
L 242.376 87.301697 
L 242.376 87.301697 
L 242.748 86.802866 
L 242.748 86.802866 
L 242.748 86.802866 
L 243.12 86.304036 
L 243.12 86.304036 
L 243.12 86.304036 
L 243.492 85.805205 
L 243.492 85.805205 
L 243.492 85.805205 
L 243.864 85.306374 
L 243.864 85.306374 
L 243.864 85.306374 
L 244.236 84.807544 
L 244.236 84.807544 
L 244.236 84.807544 
L 244.608 84.308713 
L 244.608 84.308713 
L 244.608 84.308713 
L 244.98 83.809882 
L 244.98 83.809882 
L 244.98 83.809882 
L 245.352 83.311052 
L 245.352 83.311052 
L 245.352 83.311052 
L 245.724 82.812221 
L 245.724 82.812221 
L 245.724 82.812221 
L 246.096 82.31339 
L 246.096 82.31339 
L 246.096 82.31339 
L 246.468 81.81456 
L 246.468 81.81456 
L 246.468 81.81456 
L 246.84 81.315729 
L 246.84 81.315729 
L 246.84 81.315729 
L 247.212 80.816899 
L 247.212 80.816899 
L 247.212 80.816899 
L 247.584 80.318068 
L 247.584 80.318068 
L 247.584 80.318068 
L 247.956 79.819237 
L 247.956 79.819237 
L 247.956 79.819237 
L 248.328 79.320407 
L 248.328 79.320407 
L 248.328 79.320407 
L 248.7 78.821576 
L 248.7 78.821576 
L 248.7 78.821576 
L 249.072 78.322745 
L 249.072 78.322745 
L 249.072 78.322745 
L 249.444 77.823915 
L 249.444 77.823915 
L 249.444 77.823915 
L 249.816 77.325084 
L 249.816 77.325084 
L 249.816 77.325084 
L 250.188 76.826254 
L 250.188 76.826254 
L 250.188 76.826254 
L 250.56 76.327423 
L 250.56 76.327423 
L 250.56 76.327423 
L 250.932 75.828592 
L 250.932 75.828592 
L 250.932 75.828592 
L 251.304 75.329762 
L 251.304 75.329762 
L 251.304 75.329762 
L 251.676 74.830931 
L 251.676 74.830931 
L 251.676 74.830931 
L 252.048 74.3321 
L 252.048 74.3321 
L 252.048 74.3321 
L 252.42 73.83327 
L 252.42 73.83327 
L 252.42 73.83327 
L 252.792 73.334439 
L 252.792 73.334439 
L 252.792 73.334439 
L 253.164 72.835608 
L 253.164 72.835608 
L 253.164 72.835608 
L 253.536 72.336778 
L 253.536 72.336778 
L 253.536 72.336778 
L 253.908 71.837947 
L 253.908 71.837947 
L 253.908 71.837947 
L 254.28 71.339117 
L 254.28 71.339117 
L 254.28 71.339117 
L 254.652 70.840286 
L 254.652 70.840286 
L 254.652 70.840286 
L 255.024 70.341455 
L 255.024 70.341455 
L 255.024 70.341455 
L 255.396 69.842625 
L 255.396 69.842625 
L 255.396 69.842625 
L 255.768 69.343794 
L 255.768 69.343794 
L 255.768 69.343794 
L 256.14 68.844963 
L 256.14 68.844963 
L 256.14 68.844963 
L 256.512 68.346133 
L 256.512 68.346133 
L 256.512 68.346133 
L 256.884 67.847302 
L 256.884 67.847302 
L 256.884 67.847302 
L 257.256 67.348471 
L 257.256 67.348471 
L 257.256 67.348471 
L 257.628 66.849641 
L 257.628 66.849641 
L 257.628 66.849641 
L 258 66.35081 
L 258 66.35081 
" style="fill:none;stroke:#ff0000;stroke-linecap:square;stroke-width:0.5;"/>
   </g>
   <g id="line2d_5">
    <path clip-path="url(#pb8e549006f)" d="M 311.616686 99.815016 
L 313.839972 115.221856 
L 315.642156 129.293188 
L 316.873631 140.510069 
L 317.782699 150.704451 
L 318.36936 159.876334 
L 318.615603 166.924123 
L 318.624976 173.220688 
L 318.397478 178.76603 
L 318.026954 182.813297 
L 317.491937 186.338881 
L 316.792427 189.342781 
L 316.114383 191.37029 
L 315.331064 193.063922 
L 314.442469 194.423676 
L 313.448599 195.449554 
L 312.634109 195.999855 
L 311.760401 196.36235 
L 310.827476 196.537039 
L 309.835333 196.523923 
L 308.783973 196.323001 
L 307.290043 195.762961 
L 305.690837 194.869045 
L 303.986356 193.641252 
L 302.176599 192.079582 
L 299.766359 189.657979 
L 294.139424 183.642941 
L 291.604943 181.366422 
L 289.093011 179.412159 
L 286.603626 177.780153 
L 284.136789 176.470403 
L 282.179554 175.654627 
L 280.23675 175.045096 
L 278.308376 174.641808 
L 276.394433 174.444765 
L 274.49492 174.453966 
L 272.609838 174.66941 
L 270.739186 175.091099 
L 268.882965 175.719032 
L 267.041175 176.553208 
L 265.213816 177.593629 
L 263.400886 178.840294 
L 261.155018 180.688656 
L 258.931698 182.859274 
L 256.730925 185.352148 
L 254.5527 188.167279 
L 252.397023 191.304665 
L 250.263894 194.764309 
L 247.733902 199.341259 
L 245.236379 204.382258 
L 242.771325 209.887306 
L 239.93955 216.82488 
L 235.660946 227.102124 
L 231.969677 235.396517 
L 228.809065 242.007646 
L 225.801483 247.809889 
L 223.256546 252.288373 
L 220.83252 256.127737 
L 218.810684 258.962902 
L 216.88142 261.308741 
L 215.301447 262.929996 
L 213.789486 264.191747 
L 212.345538 265.093992 
L 211.194203 265.571241 
L 210.090099 265.798833 
L 209.033226 265.77677 
L 208.023584 265.50505 
L 207.061174 264.983674 
L 206.145995 264.212642 
L 205.278047 263.191953 
L 203.434575 260.85466 
L 201.255759 258.471612 
L 198.741436 256.043109 
L 195.588168 253.319252 
L 192.028935 250.540394 
L 187.683135 247.446182 
L 182.854203 244.286513 
L 177.07766 240.789671 
L 170.734108 237.216008 
L 163.26848 233.281536 
L 158.121898 230.705185 
L 158.121898 230.705185 
" style="fill:none;stroke:#000000;stroke-linecap:square;"/>
   </g>
   <g id="patch_3">
    <path d="M 72 43.2 
L 518.4 43.2 
" style="fill:none;stroke:#000000;stroke-linecap:square;stroke-linejoin:miter;"/>
   </g>
   <g id="patch_4">
    <path d="M 518.4 388.8 
L 518.4 43.2 
" style="fill:none;stroke:#000000;stroke-linecap:square;stroke-linejoin:miter;"/>
   </g>
   <g id="patch_5">
    <path d="M 72 388.8 
L 518.4 388.8 
" style="fill:none;stroke:#000000;stroke-linecap:square;stroke-linejoin:miter;"/>
   </g>
   <g id="patch_6">
    <path d="M 72 388.8 
L 72 43.2 
" style="fill:none;stroke:#000000;stroke-linecap:square;stroke-linejoin:miter;"/>
   </g>
   <g id="matplotlib.axis_1">
    <g id="xtick_1">
     <g id="line2d_6">
      <defs>
       <path d="M 0 0 
L 0 -4 
" id="m781baaa0e7" style="stroke:#000000;stroke-width:0.5;"/>
      </defs>
      <g>
       <use style="stroke:#000000;stroke-width:0.5;" x="72.0" xlink:href="#m781baaa0e7" y="388.8"/>
      </g>
     </g>
     <g id="line2d_7">
      <defs>
       <path d="M 0 0 
L 0 4 
" id="mae0e3dfba8" style="stroke:#000000;stroke-width:0.5;"/>
      </defs>
      <g>
       <use style="stroke:#000000;stroke-width:0.5;" x="72.0" xlink:href="#mae0e3dfba8" y="43.2"/>
      </g>
     </g>
     <g id="text_1">
      <!-- 100 -->
      <defs>
       <path d="M 10.59375 35.5 
L 73.1875 35.5 
L 73.1875 27.203125 
L 10.59375 27.203125 
z
" id="BitstreamVeraSans-Roman-2212"/>
       <path d="M 31.78125 66.40625 
Q 24.171875 66.40625 20.328125 58.90625 
Q 16.5 51.421875 16.5 36.375 
Q 16.5 21.390625 20.328125 13.890625 
Q 24.171875 6.390625 31.78125 6.390625 
Q 39.453125 6.390625 43.28125 13.890625 
Q 47.125 21.390625 47.125 36.375 
Q 47.125 51.421875 43.28125 58.90625 
Q 39.453125 66.40625 31.78125 66.40625 
M 31.78125 74.21875 
Q 44.046875 74.21875 50.515625 64.515625 
Q 56.984375 54.828125 56.984375 36.375 
Q 56.984375 17.96875 50.515625 8.265625 
Q 44.046875 -1.421875 31.78125 -1.421875 
Q 19.53125 -1.421875 13.0625 8.265625 
Q 6.59375 17.96875 6.59375 36.375 
Q 6.59375 54.828125 13.0625 64.515625 
Q 19.53125 74.21875 31.78125 74.21875 
" id="BitstreamVeraSans-Roman-30"/>
       <path d="M 12.40625 8.296875 
L 28.515625 8.296875 
L 28.515625 63.921875 
L 10.984375 60.40625 
L 10.984375 69.390625 
L 28.421875 72.90625 
L 38.28125 72.90625 
L 38.28125 8.296875 
L 54.390625 8.296875 
L 54.390625 0 
L 12.40625 0 
z
" id="BitstreamVeraSans-Roman-31"/>
      </defs>
      <g transform="translate(55.5196875 401.918125)scale(0.12 -0.12)">
       <use xlink:href="#BitstreamVeraSans-Roman-2212"/>
       <use x="83.7890625" xlink:href="#BitstreamVeraSans-Roman-31"/>
       <use x="147.412109375" xlink:href="#BitstreamVeraSans-Roman-30"/>
       <use x="211.03515625" xlink:href="#BitstreamVeraSans-Roman-30"/>
      </g>
     </g>
    </g>
    <g id="xtick_2">
     <g id="line2d_8">
      <g>
       <use style="stroke:#000000;stroke-width:0.5;" x="146.4" xlink:href="#m781baaa0e7" y="388.8"/>
      </g>
     </g>
     <g id="line2d_9">
      <g>
       <use style="stroke:#000000;stroke-width:0.5;" x="146.4" xlink:href="#mae0e3dfba8" y="43.2"/>
      </g>
     </g>
     <g id="text_2">
      <!-- 0 -->
      <g transform="translate(142.5825 401.918125)scale(0.12 -0.12)">
       <use xlink:href="#BitstreamVeraSans-Roman-30"/>
      </g>
     </g>
    </g>
    <g id="xtick_3">
     <g id="line2d_10">
      <g>
       <use style="stroke:#000000;stroke-width:0.5;" x="220.8" xlink:href="#m781baaa0e7" y="388.8"/>
      </g>
     </g>
     <g id="line2d_11">
      <g>
       <use style="stroke:#000000;stroke-width:0.5;" x="220.8" xlink:href="#mae0e3dfba8" y="43.2"/>
      </g>
     </g>
     <g id="text_3">
      <!-- 100 -->
      <g transform="translate(209.3475 401.918125)scale(0.12 -0.12)">
       <use xlink:href="#BitstreamVeraSans-Roman-31"/>
       <use x="63.623046875" xlink:href="#BitstreamVeraSans-Roman-30"/>
       <use x="127.24609375" xlink:href="#BitstreamVeraSans-Roman-30"/>
      </g>
     </g>
    </g>
    <g id="xtick_4">
     <g id="line2d_12">
      <g>
       <use style="stroke:#000000;stroke-width:0.5;" x="295.2" xlink:href="#m781baaa0e7" y="388.8"/>
      </g>
     </g>
     <g id="line2d_13">
      <g>
       <use style="stroke:#000000;stroke-width:0.5;" x="295.2" xlink:href="#mae0e3dfba8" y="43.2"/>
      </g>
     </g>
     <g id="text_4">
      <!-- 200 -->
      <defs>
       <path d="M 19.1875 8.296875 
L 53.609375 8.296875 
L 53.609375 0 
L 7.328125 0 
L 7.328125 8.296875 
Q 12.9375 14.109375 22.625 23.890625 
Q 32.328125 33.6875 34.8125 36.53125 
Q 39.546875 41.84375 41.421875 45.53125 
Q 43.3125 49.21875 43.3125 52.78125 
Q 43.3125 58.59375 39.234375 62.25 
Q 35.15625 65.921875 28.609375 65.921875 
Q 23.96875 65.921875 18.8125 64.3125 
Q 13.671875 62.703125 7.8125 59.421875 
L 7.8125 69.390625 
Q 13.765625 71.78125 18.9375 73 
Q 24.125 74.21875 28.421875 74.21875 
Q 39.75 74.21875 46.484375 68.546875 
Q 53.21875 62.890625 53.21875 53.421875 
Q 53.21875 48.921875 51.53125 44.890625 
Q 49.859375 40.875 45.40625 35.40625 
Q 44.1875 33.984375 37.640625 27.21875 
Q 31.109375 20.453125 19.1875 8.296875 
" id="BitstreamVeraSans-Roman-32"/>
      </defs>
      <g transform="translate(283.7475 401.918125)scale(0.12 -0.12)">
       <use xlink:href="#BitstreamVeraSans-Roman-32"/>
       <use x="63.623046875" xlink:href="#BitstreamVeraSans-Roman-30"/>
       <use x="127.24609375" xlink:href="#BitstreamVeraSans-Roman-30"/>
      </g>
     </g>
    </g>
    <g id="xtick_5">
     <g id="line2d_14">
      <g>
       <use style="stroke:#000000;stroke-width:0.5;" x="369.6" xlink:href="#m781baaa0e7" y="388.8"/>
      </g>
     </g>
     <g id="line2d_15">
      <g>
       <use style="stroke:#000000;stroke-width:0.5;" x="369.6" xlink:href="#mae0e3dfba8" y="43.2"/>
      </g>
     </g>
     <g id="text_5">
      <!-- 300 -->
      <defs>
       <path d="M 40.578125 39.3125 
Q 47.65625 37.796875 51.625 33 
Q 55.609375 28.21875 55.609375 21.1875 
Q 55.609375 10.40625 48.1875 4.484375 
Q 40.765625 -1.421875 27.09375 -1.421875 
Q 22.515625 -1.421875 17.65625 -0.515625 
Q 12.796875 0.390625 7.625 2.203125 
L 7.625 11.71875 
Q 11.71875 9.328125 16.59375 8.109375 
Q 21.484375 6.890625 26.8125 6.890625 
Q 36.078125 6.890625 40.9375 10.546875 
Q 45.796875 14.203125 45.796875 21.1875 
Q 45.796875 27.640625 41.28125 31.265625 
Q 36.765625 34.90625 28.71875 34.90625 
L 20.21875 34.90625 
L 20.21875 43.015625 
L 29.109375 43.015625 
Q 36.375 43.015625 40.234375 45.921875 
Q 44.09375 48.828125 44.09375 54.296875 
Q 44.09375 59.90625 40.109375 62.90625 
Q 36.140625 65.921875 28.71875 65.921875 
Q 24.65625 65.921875 20.015625 65.03125 
Q 15.375 64.15625 9.8125 62.3125 
L 9.8125 71.09375 
Q 15.4375 72.65625 20.34375 73.4375 
Q 25.25 74.21875 29.59375 74.21875 
Q 40.828125 74.21875 47.359375 69.109375 
Q 53.90625 64.015625 53.90625 55.328125 
Q 53.90625 49.265625 50.4375 45.09375 
Q 46.96875 40.921875 40.578125 39.3125 
" id="BitstreamVeraSans-Roman-33"/>
      </defs>
      <g transform="translate(358.1475 401.918125)scale(0.12 -0.12)">
       <use xlink:href="#BitstreamVeraSans-Roman-33"/>
       <use x="63.623046875" xlink:href="#BitstreamVeraSans-Roman-30"/>
       <use x="127.24609375" xlink:href="#BitstreamVeraSans-Roman-30"/>
      </g>
     </g>
    </g>
    <g id="xtick_6">
     <g id="line2d_16">
      <g>
       <use style="stroke:#000000;stroke-width:0.5;" x="444.0" xlink:href="#m781baaa0e7" y="388.8"/>
      </g>
     </g>
     <g id="line2d_17">
      <g>
       <use style="stroke:#000000;stroke-width:0.5;" x="444.0" xlink:href="#mae0e3dfba8" y="43.2"/>
      </g>
     </g>
     <g id="text_6">
      <!-- 400 -->
      <defs>
       <path d="M 37.796875 64.3125 
L 12.890625 25.390625 
L 37.796875 25.390625 
z
M 35.203125 72.90625 
L 47.609375 72.90625 
L 47.609375 25.390625 
L 58.015625 25.390625 
L 58.015625 17.1875 
L 47.609375 17.1875 
L 47.609375 0 
L 37.796875 0 
L 37.796875 17.1875 
L 4.890625 17.1875 
L 4.890625 26.703125 
z
" id="BitstreamVeraSans-Roman-34"/>
      </defs>
      <g transform="translate(432.5475 401.918125)scale(0.12 -0.12)">
       <use xlink:href="#BitstreamVeraSans-Roman-34"/>
       <use x="63.623046875" xlink:href="#BitstreamVeraSans-Roman-30"/>
       <use x="127.24609375" xlink:href="#BitstreamVeraSans-Roman-30"/>
      </g>
     </g>
    </g>
    <g id="xtick_7">
     <g id="line2d_18">
      <g>
       <use style="stroke:#000000;stroke-width:0.5;" x="518.4" xlink:href="#m781baaa0e7" y="388.8"/>
      </g>
     </g>
     <g id="line2d_19">
      <g>
       <use style="stroke:#000000;stroke-width:0.5;" x="518.4" xlink:href="#mae0e3dfba8" y="43.2"/>
      </g>
     </g>
     <g id="text_7">
      <!-- 500 -->
      <defs>
       <path d="M 10.796875 72.90625 
L 49.515625 72.90625 
L 49.515625 64.59375 
L 19.828125 64.59375 
L 19.828125 46.734375 
Q 21.96875 47.46875 24.109375 47.828125 
Q 26.265625 48.1875 28.421875 48.1875 
Q 40.625 48.1875 47.75 41.5 
Q 54.890625 34.8125 54.890625 23.390625 
Q 54.890625 11.625 47.5625 5.09375 
Q 40.234375 -1.421875 26.90625 -1.421875 
Q 22.3125 -1.421875 17.546875 -0.640625 
Q 12.796875 0.140625 7.71875 1.703125 
L 7.71875 11.625 
Q 12.109375 9.234375 16.796875 8.0625 
Q 21.484375 6.890625 26.703125 6.890625 
Q 35.15625 6.890625 40.078125 11.328125 
Q 45.015625 15.765625 45.015625 23.390625 
Q 45.015625 31 40.078125 35.4375 
Q 35.15625 39.890625 26.703125 39.890625 
Q 22.75 39.890625 18.8125 39.015625 
Q 14.890625 38.140625 10.796875 36.28125 
z
" id="BitstreamVeraSans-Roman-35"/>
      </defs>
      <g transform="translate(506.9475 401.918125)scale(0.12 -0.12)">
       <use xlink:href="#BitstreamVeraSans-Roman-35"/>
       <use x="63.623046875" xlink:href="#BitstreamVeraSans-Roman-30"/>
       <use x="127.24609375" xlink:href="#BitstreamVeraSans-Roman-30"/>
      </g>
     </g>
    </g>
   </g>
   <g id="matplotlib.axis_2">
    <g id="ytick_1">
     <g id="line2d_20">
      <defs>
       <path d="M 0 0 
L 4 0 
" id="mc734d780a9" style="stroke:#000000;stroke-width:0.5;"/>
      </defs>
      <g>
       <use style="stroke:#000000;stroke-width:0.5;" x="72.0" xlink:href="#mc734d780a9" y="388.8"/>
      </g>
     </g>
     <g id="line2d_21">
      <defs>
       <path d="M 0 0 
L -4 0 
" id="mdca6541393" style="stroke:#000000;stroke-width:0.5;"/>
      </defs>
      <g>
       <use style="stroke:#000000;stroke-width:0.5;" x="518.4" xlink:href="#mdca6541393" y="388.8"/>
      </g>
     </g>
     <g id="text_8">
      <!-- 300 -->
      <g transform="translate(35.039375 392.11125)scale(0.12 -0.12)">
       <use xlink:href="#BitstreamVeraSans-Roman-2212"/>
       <use x="83.7890625" xlink:href="#BitstreamVeraSans-Roman-33"/>
       <use x="147.412109375" xlink:href="#BitstreamVeraSans-Roman-30"/>
       <use x="211.03515625" xlink:href="#BitstreamVeraSans-Roman-30"/>
      </g>
     </g>
    </g>
    <g id="ytick_2">
     <g id="line2d_22">
      <g>
       <use style="stroke:#000000;stroke-width:0.5;" x="72.0" xlink:href="#mc734d780a9" y="331.2"/>
      </g>
     </g>
     <g id="line2d_23">
      <g>
       <use style="stroke:#000000;stroke-width:0.5;" x="518.4" xlink:href="#mdca6541393" y="331.2"/>
      </g>
     </g>
     <g id="text_9">
      <!-- 200 -->
      <g transform="translate(35.039375 334.51125)scale(0.12 -0.12)">
       <use xlink:href="#BitstreamVeraSans-Roman-2212"/>
       <use x="83.7890625" xlink:href="#BitstreamVeraSans-Roman-32"/>
       <use x="147.412109375" xlink:href="#BitstreamVeraSans-Roman-30"/>
       <use x="211.03515625" xlink:href="#BitstreamVeraSans-Roman-30"/>
      </g>
     </g>
    </g>
    <g id="ytick_3">
     <g id="line2d_24">
      <g>
       <use style="stroke:#000000;stroke-width:0.5;" x="72.0" xlink:href="#mc734d780a9" y="273.6"/>
      </g>
     </g>
     <g id="line2d_25">
      <g>
       <use style="stroke:#000000;stroke-width:0.5;" x="518.4" xlink:href="#mdca6541393" y="273.6"/>
      </g>
     </g>
     <g id="text_10">
      <!-- 100 -->
      <g transform="translate(35.039375 276.91125)scale(0.12 -0.12)">
       <use xlink:href="#BitstreamVeraSans-Roman-2212"/>
       <use x="83.7890625" xlink:href="#BitstreamVeraSans-Roman-31"/>
       <use x="147.412109375" xlink:href="#BitstreamVeraSans-Roman-30"/>
       <use x="211.03515625" xlink:href="#BitstreamVeraSans-Roman-30"/>
      </g>
     </g>
    </g>
    <g id="ytick_4">
     <g id="line2d_26">
      <g>
       <use style="stroke:#000000;stroke-width:0.5;" x="72.0" xlink:href="#mc734d780a9" y="216.0"/>
      </g>
     </g>
     <g id="line2d_27">
      <g>
       <use style="stroke:#000000;stroke-width:0.5;" x="518.4" xlink:href="#mdca6541393" y="216.0"/>
      </g>
     </g>
     <g id="text_11">
      <!-- 0 -->
      <g transform="translate(60.365 219.31125)scale(0.12 -0.12)">
       <use xlink:href="#BitstreamVeraSans-Roman-30"/>
      </g>
     </g>
    </g>
    <g id="ytick_5">
     <g id="line2d_28">
      <g>
       <use style="stroke:#000000;stroke-width:0.5;" x="72.0" xlink:href="#mc734d780a9" y="158.4"/>
      </g>
     </g>
     <g id="line2d_29">
      <g>
       <use style="stroke:#000000;stroke-width:0.5;" x="518.4" xlink:href="#mdca6541393" y="158.4"/>
      </g>
     </g>
     <g id="text_12">
      <!-- 100 -->
      <g transform="translate(45.095 161.71125)scale(0.12 -0.12)">
       <use xlink:href="#BitstreamVeraSans-Roman-31"/>
       <use x="63.623046875" xlink:href="#BitstreamVeraSans-Roman-30"/>
       <use x="127.24609375" xlink:href="#BitstreamVeraSans-Roman-30"/>
      </g>
     </g>
    </g>
    <g id="ytick_6">
     <g id="line2d_30">
      <g>
       <use style="stroke:#000000;stroke-width:0.5;" x="72.0" xlink:href="#mc734d780a9" y="100.8"/>
      </g>
     </g>
     <g id="line2d_31">
      <g>
       <use style="stroke:#000000;stroke-width:0.5;" x="518.4" xlink:href="#mdca6541393" y="100.8"/>
      </g>
     </g>
     <g id="text_13">
      <!-- 200 -->
      <g transform="translate(45.095 104.11125)scale(0.12 -0.12)">
       <use xlink:href="#BitstreamVeraSans-Roman-32"/>
       <use x="63.623046875" xlink:href="#BitstreamVeraSans-Roman-30"/>
       <use x="127.24609375" xlink:href="#BitstreamVeraSans-Roman-30"/>
      </g>
     </g>
    </g>
    <g id="ytick_7">
     <g id="line2d_32">
      <g>
       <use style="stroke:#000000;stroke-width:0.5;" x="72.0" xlink:href="#mc734d780a9" y="43.2"/>
      </g>
     </g>
     <g id="line2d_33">
      <g>
       <use style="stroke:#000000;stroke-width:0.5;" x="518.4" xlink:href="#mdca6541393" y="43.2"/>
      </g>
     </g>
     <g id="text_14">
      <!-- 300 -->
      <g transform="translate(45.095 46.51125)scale(0.12 -0.12)">
       <use xlink:href="#BitstreamVeraSans-Roman-33"/>
       <use x="63.623046875" xlink:href="#BitstreamVeraSans-Roman-30"/>
       <use x="127.24609375" xlink:href="#BitstreamVeraSans-Roman-30"/>
      </g>
     </g>
    </g>
   </g>
  </g>
 </g>
 <defs>
  <clipPath id="pb8e549006f">
   <rect height="345.6" width="446.4" x="72.0" y="43.2"/>
  </clipPath>
 </defs>
</svg>
